# xmcd CD database file
#
# Track frame offsets:
#	150
#	29091
#	48084
#	82934
#	104799
#	142138
#	163235
#	230194
#	250382
#
# Disc length: 4192 seconds
#
# Revision: 0
# Processed by: cddbd v1.5.2PL0 Copyright (c) Steve Scherf et al.
# Submitted via: CDex 1.51
#
DISCID=84105e09
DTITLE=Daniel Kobialka - Pathless Journey
DYEAR=2004
DGENRE=New Age
TTITLE0=Moon Gazing On The Interlunar Sea
TTITLE1=Interlude - Watercolor L...
TTITLE2=Gentle Rain Drops Falling On Leaves
TTITLE3=Interlude - Watercolor S...
TTITLE4=Distant Voices
TTITLE5=Interlude - Watercolor A...
TTITLE6=Unfathomed Silence
TTITLE7=Interlude - Watercolor I...
TTITLE8=Pathless Journey
EXTD=YEAR: 2004
EXTT0=
EXTT1=
EXTT2=
EXTT3=
EXTT4=
EXTT5=
EXTT6=
EXTT7=
EXTT8=
PLAYORDER=
